<?xml version="1.0" encoding="utf-8"?>
<!-- Generator: Adobe Illustrator 18.1.1, SVG Export Plug-In . SVG Version: 6.00 Build 0)  -->
<svg version="1.1" xmlns="http://www.w3.org/2000/svg" xmlns:xlink="http://www.w3.org/1999/xlink" x="0px" y="0px"
	 viewBox="0 0 1920 1080" enable-background="new 0 0 1920 1080" xml:space="preserve">
<g id="Tail">
	<g>
		<path d="M754,546c-0.3,4.1,6.1,7,8.6,9.6c1.4,1.4,2.8,2.7,4.4,3.9c2,1.5,3,3.1,4.5,5c2.5,3,5.4,4.9,8.5,7.1
			c3.5,2.5,6.1,5.7,10,7.9c13.4,7.5,26.1,15.9,42,17.4c9.5,0.8,18.5-9.9,20.2-18.5c1-5.2,2.7-10.9,2.8-16.2c0.1-5.1,0.1-10.2,0-15.3
			c-0.1-9.9-8.4-16.9-17.3-19.6c-3.1-1-6.2-2.3-9.1-0.1c-3.1,2.3-4.7,7.4-5.5,11.1c-0.6,2.6-0.2,5.6-0.2,8.3c0,2.8,0.9,5.3-2,6.5
			c-3.5,1.6-5.9,1-6.9-3.3c-0.6-2.6-0.6-6.9-0.2-9.5c0.4-2.6,1.9-5.4,2.8-7.9c1.1-3.1,2.3-6.7,4.2-9.5c2-2.9,6.5-5.2,9.7-6.8
			c2.7-1.4,5.4-0.9,8.4-1c6.7-0.1,11,7,14.6,12c4.4,6.1,7,13.8,8.5,21c0.7,3.1,0.5,6.4,1.1,9.6c0.3,1.6,0.9,2.9,1,4.5
			c0.1,2.1-0.1,3.9,0.5,6c1.8,7.5,0.5,16.4,0.5,24.1c0,1.5,0.3,3.4-0.1,4.8c-0.5,1.5-2,3-2.9,4.3c-2.7,3.9-5.4,6.1-10,7.5
			c-9.9,2.9-19.7,3.3-30,3.3c-6.3,0-13,0.6-19-2c-5.5-2.3-12-3.2-17-6.5c-2.1-1.4-3.3-3.4-4.5-5.6c-1.7-3-3.4-5.6-5.6-8.3
			c-3.6-4.5-7.3-8.9-10.5-13.7c-2.6-4-5-8.1-7.7-12c-3.1-4.6-7.4-8-9.8-13"/>
		<g>
			<path d="M752.5,546c0.3,5.6,7,8.8,10.7,12.2c2.6,2.4,5.1,4.6,7.4,7.3c3.1,3.7,7.4,6,11,9.1c6.4,5.4,13.2,9.4,20.6,13.4
				c7.5,4.1,15.3,7.7,23.7,9.4c6.8,1.4,12.6,1.1,18.2-3.4c5.4-4.4,8.5-10.4,10-17.1c2.2-9.8,2.7-19.1,2.5-29.2
				c-0.2-7.1-3.2-13-8.9-17.2c-4.3-3.2-12.4-7.6-17.9-5.6c-5.7,2-8,10.5-8.3,15.8c-0.2,2.8,1.6,10.1-1.9,11.4c-5.6,2-4.5-10-3.8-13
				c1-3.9,2.8-8.1,4.4-11.7c2.1-4.7,5.5-7.3,10-9.5c10.9-5.3,18.1,3.6,23.3,11.9c5.2,8.3,6.7,17.1,7.9,26.6
				c1.2,9.1,2.8,17.9,2.4,27.2c-0.2,4.6,0.7,10.9-1.5,14.9c-2.2,3.9-5.7,7.2-10,8.6c-10.5,3.6-21.9,3.3-32.8,3.4
				c-6.2,0.1-11.6-0.4-17.5-2.5c-5.1-1.9-11.8-2.7-16-6.4c-3.3-3-5.2-8-7.9-11.6c-3.4-4.5-7.1-8.7-10.3-13.3
				c-3.2-4.6-5.9-9.6-9.2-14.1c-3-4.2-6.9-7.7-9.3-12.3c-0.9-1.7-3.5-0.2-2.6,1.5c2,3.8,4.8,6.8,7.5,10.1c3.6,4.4,6.4,9.4,9.5,14.2
				c5.3,8.1,11.9,15.1,16.9,23.4c4.6,7.7,12.7,8.7,20.5,11.5c9.1,3.3,18.5,2.8,28.1,2.5c8.5-0.3,18.3-0.7,26.1-4.3
				c5.2-2.3,11.1-8.7,11.3-14.6c0.3-9.6,0.3-18.8-0.8-28.3c-1.1-8.9-1.6-18-4.4-26.6c-4.1-12.4-13.9-30.2-29.6-25.8
				c-6.8,1.9-12.1,6.8-14.7,13.1c-3,7.3-6.1,14.5-4.4,22.5c1,4.9,5.7,8,10.2,4.2c1.6-1.3,1.8-2.9,1.8-4.9c0-4.9-0.5-9.4,1.1-14.1
				c1.4-4,3.7-7.1,8.5-6.9c2,0.1,4.9,1.5,6.7,2.3c4.4,2,8.4,5.1,10.7,9.4c2.6,4.8,1.9,10.6,1.9,15.9c0,6.2-0.5,12-1.8,18.1
				c-2.2,9.8-7.7,22.3-19.7,21.8c-11.1-0.4-21.8-6.2-31.3-11.5c-4.8-2.7-10-5.2-14.2-8.8c-3.8-3.2-8.1-6-11.8-9.4
				c-1.8-1.7-3.1-3.7-4.8-5.5c-1.6-1.7-3.6-3.1-5.4-4.7c-2.7-2.5-9-5.7-9.2-9.6C755.4,544.1,752.4,544.1,752.5,546L752.5,546z"/>
		</g>
	</g>
</g>
<g id="Leg_x5F_Right">
	<g>
		<path d="M706,571c0.2,6.2-1.4,12.4-1.8,18.6c-0.7,10.1-0.2,20.4-0.2,30.5c0,9-1.1,17.9-1,26.9c0,6.2,0,12.4,0,18.6
			c0,16.5,0,33,0,49.5c0,2.5,0,5,0,7.5c0,1.3-0.5,3.3-0.1,4.5c0.6,1.9,2.9,2,4.2,3.1c1.3,1.1,1.7,2.3,2.2,3.8
			c1.7,4.7,2.4,6.7-2.5,9.3c-4.2,2.2-9,3.3-13.5,5c-4.6,1.8-10.2,4.9-14.3,0.8c-2.5-2.6-4.1-7-2.9-10.6c1.2-3.5,5.2-3.1,8-4.4
			c3-1.3,5.9-5.1,6.8-8.3c0.6-2.4,0.2-5.5,0.2-7.9c0-3,0-6,0-9c0-6.6,0-13.1,0-19.7c0-5,0-10,0-15c0-5-0.8-9.8-1.1-14.8
			c-0.2-5.4-0.9-10.9-1-16.2c0-2.6,0.2-5.2,0.1-7.8c-0.1-3.1-1-6.1-1.1-9.1c-0.6-15.3,0.1-30.7,0.1-46c0-4,0-8,0-12
			c0-2.2,0.4-4,0.8-6c0.5-2.8,0-4.5,2.4-6.7c3.2-3.1,6.1-2.3,9.8-0.7c3.9,1.6,6.8,2.7,7.8,7.4c0.9,4,0.8,10.5-0.8,14.1"/>
		<g>
			<path d="M704.5,571c0,7.5-1.7,14.9-2,22.3c-0.3,7.6-0.1,15.3,0,22.9c0.2,15.2-1,30.4-1,45.6c0,15.8,0,31.5,0,47.3
				c0,3.9,0,7.7,0,11.6c0,2-0.6,4.4-0.1,6.4c0.3,1.3,1,2.1,2.1,2.9c2.8,2,5.2,4,5.5,7.8c0.5,5.7-13.1,8-17.4,9.6
				c-3.6,1.4-8,3.8-11.5,0.6c-1.6-1.5-3-4.5-2.9-6.7c0.3-4.9,3.3-4.3,6.2-5.3c11.1-3.8,9.1-16.1,9.1-25.3c0-15.2,0.8-30.6-0.6-45.8
				c-0.7-7.2-1.4-14.6-1.4-21.8c-0.1-7.7-1-15.1-1.2-22.7c-0.4-16.8,0.1-33.7,0.2-50.6c0-3.3,0.3-6.8,1.1-10c1.6-6.6,7.4-5.1,11.9-3
				c6.7,3.2,6.5,12.7,4.1,18.9c-0.7,1.8,2.2,2.6,2.9,0.8c1.9-4.8,2.3-11.5,0.4-16.4c-1.7-4.5-6.7-6.8-11.1-7.9
				c-14.3-3.8-12.2,18.2-12.2,26.2c0,17.4-1.8,35.4,0.6,52.7c0.7,4.9,0.3,9.8,0.5,14.7c0.2,4.5,0.6,9,0.9,13.5
				c0.6,9.1,1,17.9,1.1,27c0,9.3,0,18.6,0,27.9c0,4.2,1.1,9.5-0.9,13.3c-2.4,4.5-5.8,5-10,6.7c-9.7,4.1-2.2,19.5,7.1,18.2
				c3.4-0.5,6.5-2.2,9.7-3.3c3.8-1.3,7.7-2.4,11.4-4.1c4.1-2,6.1-4.5,4.8-9c-0.5-1.9-1.3-4.4-2.6-6c-0.8-0.9-1.6-1.2-2.5-1.9
				c-2.2-1.6-2.1-2.5-2-5c0.4-9.2,0-18.6,0-27.9c0-20.5-0.7-41.2,0.5-61.8c0.6-10.5,0.3-21,0.3-31.5c0-10.4,2.2-20.6,2.2-30.9
				C707.5,569.1,704.5,569.1,704.5,571L704.5,571z"/>
		</g>
	</g>
</g>
<g id="Leg_x5F_Left">
	<g>
		<path d="M748,558c0,8.7-0.3,17.4,0.1,26.1c0.6,13.5,3.2,26.5,4.7,39.9c3.1,27.5,4.2,55.4,4.2,83.1c0,7.5,0,15,0,22.5
			c0,4.5,1.4,9.5,2.5,13.9c1.4,5.7-2.6,5-7.4,4.6c-6.3-0.6-12.8-1.6-18.9-2.8c-4.5-0.9-5.9-3.3-5.2-8c0.6-4.2,3.9-5.8,7.8-6.3
			c2.2-0.2,5.2,0.8,7.2,0.2c4.3-1.3,4-12.7,4-16.1c-0.1-7.2,0-14.4,0-21.6c0-8.7-1-16.9-2.1-25.5c-1.8-13.8-3.5-27.7-5.9-41.5
			c-0.7-4-0.7-7.5-0.9-11.5c-0.2-2.6-1-5.1-1.1-7.7c-0.1-4.4,0.6-9-0.5-13.3c-0.6-2.2-0.4-4-0.5-6.2c0-2.1-0.8-3.8-1.1-5.8
			c-0.4-3.2,0.1-6.7,0.1-9.9"/>
		<g>
			<path d="M746.5,558c0,14.5-0.2,28.8,1.7,43.2c1.9,14.3,3.9,28.5,5,43c1.1,14.5,1.8,29,2.1,43.5c0.3,14.4-0.8,29.2,0.2,43.5
				c0.2,2.5,0.7,5,1.2,7.5c0.3,1.3,1.5,3.8,1.3,5.1c-0.6,4.3-1.2,2.6-3.1,2.9c-2.5,0.4-6-0.6-8.5-0.9c-4.1-0.5-8.8-0.9-12.8-2.1
				c-2.4-0.7-3.9-1.1-4.3-4c-0.3-2.3,0.6-4.8,2.6-6.1c2.6-1.7,5.5-1,8.4-0.9c3.4,0.1,5.4-0.8,6.8-4.1c3.3-7.9,1.5-19.2,1.5-27.4
				c0-14.4-1.5-28.4-3.3-42.8c-1-7.7-2-15.4-3.2-23.1c-1.1-7.4-1.7-14.7-2.6-22.1c-0.8-6.6-0.3-13.3-1.4-19.8
				c-1.2-7.1-1.6-14.4-1.4-21.6c0-1.9-3-1.9-3,0c-0.1,6.5,0.6,12.5,1.1,18.9c0.2,3.3,1.1,6.4,1.1,9.7c0,3.5-0.2,6.8,0.3,10.2
				c0.9,6.6,1.2,13.3,2.3,19.9c1.4,8.6,2.6,17.3,3.7,26c2,15.6,3.6,30.8,3.5,46.6c0,5.6,0.2,11.2,0,16.8c-0.1,2.3-0.2,4.8-1,7
				c-1.6,4.2-5.6,2.2-9.1,2.5c-3.8,0.4-7.3,2.3-8.6,6c-1.2,3.4-0.7,7.6,2.4,9.8c4.4,3,12.1,2.9,17.2,3.6c3.4,0.4,10.4,2.4,13.5-0.1
				c3.1-2.5,0.5-7.9-0.2-10.9c-1.9-8.2-1.2-16.9-1.2-25.3c0-16.1-0.2-32.1-1-48.2c-0.9-17.5-2.3-35-4.7-52.3
				c-1.3-9.3-2.8-18.7-3.2-28.1c-0.4-8.7-0.1-17.4-0.1-26.1C749.5,556.1,746.5,556.1,746.5,558L746.5,558z"/>
		</g>
	</g>
</g>
<g id="Arm_x5F_Right">
	<g>
		<path d="M665,337c-6.3,1.3-8.5,7.4-12.2,11.8c-1.9,2.3-4.4,3.9-6.1,6.4c-2.1,3.1-3.5,6.5-5.2,9.8c-4.7,9.2-7.7,17.7-9,28.1
			c-1.2,9.5-2.2,19.3-5,28.4c-2.3,7.6-2.9,15.6-4.3,23.4c-1.5,8.7-3.3,17.2-4.5,25.9c-0.4,2.5-2,6,0.3,7.7c2,1.4,4.9-0.6,6.4,1.6
			c0.8,1.2,0.9,3.9,0.2,5.2c-0.7,1.4-3.1,3.1-4.6,3.2c-1.6,0.1-2.3-0.7-4-0.9c-2.8,1.9-0.9,8.6-1.1,11.5c-0.2,3.2-2,7.2-5.2,8.5
			c-4,1.6-5.8-3-6.7-6.2c-0.5-1.7-1.6-4.3-1.2-6c0.5-2.1,3.2-2.6,3.5-5.1c-3.2-3.6-10.4,1.4-13.6-2.6c-2.5-3.2,1.4-5.8,3.8-7.3
			c-2.9-1.6-4.7-2.7-5.6-6.3c-1.1-4.3,1.2-4.6,4.9-4.9c4.3-0.3,4.2-3,4.7-6.8c1.1-7.5,0.3-15.8-0.5-23.3c-0.7-6.1-0.5-12.8-0.3-18.9
			c0.1-5.3,2.6-10.2,4.1-15.2c1.7-5.9,2.7-12.2,4.9-17.9c1.6-4.1,4.1-8,6.1-12c1.4-2.7,2.5-5.5,3.9-8.1c4.1-7.3,9-13.9,14.9-19.7
			c2.6-2.6,5.1-5.6,8.2-7.6c2.2-1.4,4.4-3.2,6.9-4c4.1-1.2,8.4-2,12.6-3.1c2.5-0.7,6.4-1.4,8.4-3.4"/>
		<g>
			<path d="M664.6,335.6c-5.5,1.5-8.1,5.6-11.2,10c-2,2.8-4.7,4.9-6.9,7.5c-2.4,2.9-3.9,6.4-5.5,9.7c-3.2,6.5-6.2,13-8,20
				c-2.1,8.2-2.6,16.7-3.9,25.1c-1.4,8.7-4.3,17-5.6,25.7c-1.3,8.9-2.9,17.7-4.5,26.6c-0.7,4-1.2,8-2,11.9c-0.4,2-1.1,4.4,0.1,6.3
				c1.2,1.9,2.6,1.5,4.3,2.1c1.7,0.6,0.4-1.2,2.3,1.3c0.4,0.4,0.7,0.9,1.1,1.3c-0.8,1.1-1.5,2.1-2.3,3.2c-2.6,1.3-3.6-0.9-5.7-0.3
				c-4.8,1.4-1.8,10.8-2.4,14c-0.6,3.1-4.2,9.1-7.7,3.7c-0.8-1.2-1.3-3.2-1.6-4.6c-0.5-2.4-0.1-3.6,1.2-5.6c0.7-1.1,1.3-1.7,1.7-3
				c0.1-0.5,0-1.1-0.4-1.5c-1.7-1.5-3.4-1.9-5.7-1.8c-1.4,0-3,0.6-4.4,0.4c-2.1,0.3-3-1.1-2.6-4.2c0.8-0.7,1.7-1.3,2.6-1.9
				c0.9-0.6,1-2,0-2.6c-2.1-1.2-4.7-2.7-4.9-5.4c-0.3-3.5,1.6-2.7,3.8-3.1c1.8-0.3,3.4-0.8,4.5-2.4c1.1-1.6,1.1-3.9,1.4-5.8
				c0.5-4.2,0.7-8.4,0.4-12.6c-0.4-8.8-1.6-17.4-1.4-26.2c0.2-8.8,3.9-16.9,5.9-25.4c2.1-8.7,6-16,9.8-24
				c3.9-8.1,8.3-15.6,14.4-22.3c5.5-6.1,11.5-12.8,19.7-15.3c6.4-2,14.4-2.1,19.9-6.4c1.5-1.2-0.6-3.3-2.1-2.1
				c-5.6,4.4-14.6,3.9-21.1,6.4c-5.5,2.1-9.9,6.4-13.9,10.5c-4.5,4.7-8.8,9.4-12.4,14.8c-4,6-6.8,12.6-10.2,18.9
				c-3.4,6.3-5.5,12.6-7.2,19.5c-1.7,7-5.1,13.9-5.7,21c-0.6,7.1-0.3,14.4,0.4,21.5c0.8,7.1,2.2,15.9,0.1,23c-0.7,2.5-1.5,3.6-4.2,4
				c-0.9,0.1-1.9,0.2-2.8,0.6c-1.3,0.6-2.1,1.3-2.5,2.7c-1.4,4.7,2.8,8.6,6.4,10.7c0-0.9,0-1.7,0-2.6c-3.9,2.6-8.5,8.5-1.8,11.2
				c2.5,1.1,6.9-1.2,8.8,0c2,1.2-0.8,2.9-1.3,4.3c-0.4,1.2-0.3,2.3-0.1,3.5c0.8,4.5,3.4,13.2,9.6,11c2.6-0.9,4.4-3.3,5.3-5.8
				c1.5-3.8,0-7.1,0.5-10.9c0.4-3.9,1.4-2.2,4-2.3c1-0.1,2-0.5,2.8-1c2.6-1.5,4-3.9,3.7-6.9c-0.2-2.2-1.3-4-3.6-4.5
				c-2.6-0.6-5.1,0.3-4.3-4c0.5-2.6,0.9-5.2,1.4-7.9c1.9-11.6,3.8-23.2,5.8-34.8c0.9-5.4,2.7-10.6,3.8-15.9c1.2-5.4,1.9-11,2.6-16.5
				c1.6-12.9,5.1-23.9,10.9-35.6c1.4-2.8,2.6-5.6,4.6-7.9c1.8-2.2,4-3.9,5.8-6.1c3.2-4.1,5.3-9,10.8-10.4
				C667.3,337.9,666.5,335,664.6,335.6L664.6,335.6z"/>
		</g>
	</g>
</g>
<g id="Arm_x5F_Left">
	<g>
		<path d="M742,307c4.2,3.8,8.8,7.2,12.9,11.3c4.4,4.4,7.5,9.2,11.1,14.2c6.4,9,13.3,16.7,16.1,27.7c1.3,5.1,1.6,10.5,2.2,15.8
			c0.8,6.6,1.7,13.3,1.8,20c0.2,11.5,0.8,22.8,2.7,34.2c1.2,7.2,1.9,14.5,3,21.7c0.4,2.8,0.4,5.5,1,8.3c0.4,1.7,0.9,3.2,1.3,4.9
			c0.5,2.4-0.1,3.9,2.9,4.9c2.5,0.9,4.7,0.3,5,4.2c0.4,5-8.4,5.3-11.6,4.3c-1.7,1.8,1.1,6.8,1.4,9c0.4,2.7,1,7.6-2.3,8.7
			c-7.4,2.6-5.7-11.6-6.7-14.7c-2.1,1.2-2.2,4.1-4,5.7c-3,2.8-6.8,4.4-9.2,0.1c-0.6-1.1-2.6-4.4-2.5-5.6c0.1-3.1,5.6-2.3,6.7-4.4
			c-1.2-2.8-7.9-4.8-6.3-8.6c0.6-1.4,2-1.5,3.5-1.6c2.6-0.2,2.7,0.6,4.3-1c1.9-1.8,2.7-6.2,2.7-8.7c0.1-6.5-0.5-12.8-0.9-19.2
			c-0.6-9.3-2.7-18.5-3.1-27.7c-0.2-4.2-1.2-8.7-2-12.8c-1-5.4-1.4-11.1-3-16.4c-3.6-12.1-8.3-24.2-13.2-35.7
			c-2.8-6.4-7.2-11.6-10.8-17.5c-1.6-2.6-4.1-5.7-4.8-8.8c-0.6-2.5-1.1-9.2,0.8-11"/>
		<g>
			<path d="M740.9,308.1c7,6.2,14,11.7,19.5,19.3c4.6,6.2,9.4,12.5,13.6,19c5.3,8.3,7.3,16.4,8.3,26.1c0.9,8.8,2,17.5,2.2,26.3
				c0.4,17.9,3.4,35.4,5.7,53.2c0.5,4.1,1,7.9,1.9,11.8c0.4,1.8,0.4,4.4,1.7,6c1.3,1.5,8.9,2.6,5.4,6.4c-1.7,1.8-6.5,1.3-8.6,0.7
				c-0.6-0.2-1.4,0.1-1.7,0.7c-1.2,2-0.7,4,0,6.1c0.4,1.5,3.7,14.1-1.9,10.7c-3.6-2.1-1.9-9.8-2.8-13.5c-0.3-1.2-1.7-1.3-2.5-0.7
				c-1.5,1.1-2,2.5-2.9,4.1c-2.4,4.1-7.1,4-9.2-0.2c-2.4-4.7,2.9-3.2,5.2-6c0.4-0.5,0.6-1.2,0.2-1.8c-1-1.7-4.7-3.3-5.2-4.9
				c-1.3-4.1,3.6-2.6,5.3-3.5c4.1-2.2,4.3-8.7,4.3-12.7c0-8.9-0.7-18.1-1.9-26.9c-1.2-8.9-1.6-18-3.3-26.8
				c-1.7-8.9-2.7-17.7-5.5-26.4c-2.8-8.8-6.1-17.4-9.7-25.9c-3.2-7.6-7.5-13.9-11.9-20.8c-3.2-5-9.5-13.7-4.9-19.7
				c1.2-1.5-1.4-3-2.6-1.5c-2.7,3.5-1.9,10-0.4,13.8c2.9,7.4,8.9,13.6,12.9,20.4c5.2,8.9,8.6,19.3,12,29.1
				c3.2,9.4,4.8,18.5,6.6,28.2c1.8,9.4,2.4,19,3.7,28.6c1.4,9.8,2.7,20.5,2,30.4c-0.3,4.1-1.1,7.5-5.5,7.7c-1.9,0.1-3.8,0.4-4.7,2.3
				c-2.5,4.8,4.4,7,6.3,10.1c0.1-0.6,0.2-1.2,0.2-1.8c-1.8,2.2-5.8,1.2-6.9,4.3c-1,2.6,1.5,6.3,2.9,8.2c1.8,2.5,4.4,3.4,7.3,2.2
				c4.4-1.7,4.6-5.8,7.9-8.3c-0.8-0.2-1.7-0.4-2.5-0.7c1.2,4.5-0.9,14.6,5.5,16c3.2,0.7,5.8-1.6,6.5-4.5c0.4-1.7,0.3-3.6,0-5.3
				c-0.4-2.3-3-6.6-1.7-8.8c-0.6,0.2-1.1,0.5-1.7,0.7c5,1.4,17-0.5,12.9-8.4c-0.9-1.6-1.9-1.7-3.4-2.5c-3.9-1.9-4.4-5.2-5.2-9.3
				c-1.6-7.7-2-15.9-3.1-23.7c-1.2-8.6-2.6-17.1-3.1-25.8c-0.5-8.4-0.4-16.8-1.2-25.2c-1.5-14.5-2.4-28.3-10.6-40.8
				c-4.6-7-9.7-13.9-14.7-20.5c-5.3-6.9-11.9-12-18.4-17.7C741.6,304.7,739.5,306.8,740.9,308.1L740.9,308.1z"/>
		</g>
	</g>
</g>
<g id="Body">
	<g>
		<path d="M735,279c2.9,11.8,6.4,23.3,8.7,35.3c2,10.3,4,20.3,4.8,30.8c1.1,13.2,1.9,26.4,1.8,39.6c-0.1,16.4,0.1,32.8,1.1,49.2
			c0.4,7.2,0.8,14.4,1.5,21.5c0.6,6.6,0.8,13.2,1.7,19.7c1,7.1,1.7,14.4,2.2,21.6c0.5,6.7,1.5,13.6,1.4,20.3
			c-0.1,8.9-0.1,17.8,0,26.6c0,3.5,0.5,7.4-1.4,10.6c-1.5,2.6-3.6,5.3-5.9,7.3c-2.5,2.2-5,4.4-7.3,6.8c-2.8,2.8-5.5,6.1-8.9,8.3
			c-6.1,4-16.7,3.1-23.2,1c-11.3-3.6-21.8-10.2-28.7-19.9c-4.2-5.9-6.6-12.7-9.3-19.4c-2.9-7.1-6.4-14.1-9-21.3c-2.7-7.6-4-16-5-24
			c-1.4-10.4-1.6-20.7-2.6-31.1c-1.5-15.4-2-30.4-2-45.9c0-6.6-0.3-13.3,0.4-19.9c0.7-7.2,2.4-14.2,3-21.4c0.7-8.8,2.9-17.5,4-26.3
			c1.3-10.7,1.7-21.4,3-32c1-8,0.3-16.6,0.3-24.7"/>
		<g>
			<path d="M733.6,279.4c5.2,21.1,11.2,42,13.3,63.7c2,21.7,1.7,43.4,2.2,65.1c0.4,21.1,1.5,42.3,3.8,63.3
				c1.1,10.2,2.2,20.4,3.1,30.6c1,10.4,0.9,20.6,0.9,31c0,4.8,0.2,9.6,0.1,14.3c-0.2,6-3.9,10.2-8.2,14.1
				c-7.3,6.6-13.3,15.7-23.8,16.2c-17.9,0.9-36.4-11.5-44.3-27.1c-4.5-8.9-8.1-18.5-11.9-27.7c-3.9-9.3-6-18.7-7.3-28.7
				c-1.5-11.1-1.8-22.3-2.9-33.4c-1-10.5-1.6-21-1.8-31.5c-0.2-11-0.9-22.4,0.2-33.3c1.2-12,3-24.2,5.1-36.1
				c4-22.5,5.3-45.5,5.2-68.4c0-1.9-3-1.9-3,0c0.1,22.9-1.3,45.9-5.3,68.5c-1.9,10.6-3.1,21.3-4.6,31.9c-1.4,10.4-0.9,21.1-0.8,31.6
				c0.1,11.5,0.6,22.9,1.6,34.4c1,11,1.4,22.1,2.7,33c1.2,10.1,2.8,20.1,6.6,29.6c3.7,9.5,7.8,19,12,28.3c7,15.7,21.6,27.6,38.6,31
				c7.3,1.5,15.7,1.5,21.9-3.1c3.3-2.5,6-5.8,9-8.7c3.4-3.3,7.2-6.2,10.1-10c5.6-7.5,3.8-17.1,3.8-26c0-11.3-0.3-22.4-1.2-33.7
				c-1.8-22.2-4.4-44.3-5.7-66.6c-1.5-26.3-0.4-52.6-2.3-78.9c-1.8-25.5-8-49.7-14.2-74.4C736,276.7,733.1,277.5,733.6,279.4
				L733.6,279.4z"/>
		</g>
	</g>
	<g>
		<path fill="#FFFFFF" d="M672.3,291.7c1.3,1.1,0.7,3.9,0.7,5.4c0,4.7,0,9.4,0,14c0,13.1,0,26.1,0,39.2c0,18.7-0.2,37.4,1,56.1
			c0.5,7.3,0.9,14.7,1.3,22c0.4,6.9,1.7,13.5,2.4,20.3c0.7,7.1,1.3,14.3,1.9,21.4c0.5,6.4,0.1,13.1,0.1,19.6c0,4.7,0.6,9.8,2.7,14.1
			c2.5,5.1,5.7,9.9,8,15.1c1.6,3.7,5.1,9.2,9.4,10.1c1.4,0.3,3.2,0.1,4.6,0.3c1.9,0.2,3.5,0.6,5.5,0.4c1.3-0.1,3.3-0.6,4.6-1.2
			c1.8-0.9,1.6-1.3,2.1-3c0.8-2.3,2.1-4.5,3.4-6.6c1.7-2.7,2.1-5.2,2.3-8.4c0.4-4.5,0.1-9.1,0.1-13.7c0.1-7.9,0.9-15.7,0.7-23.6
			c-0.3-12.9-1.6-25.9-2.2-38.8c-0.3-6.9-0.4-13.7-0.7-20.5c-0.3-7.6-1-15.2-1.2-22.8c-0.3-10.3-0.6-20.5-0.6-30.9
			c0-5.6,0-11.2,0-16.8c0-4.4-0.7-8.7-0.7-13.1c0.1-8.7,0-17.4,0-26.1c0-3.2,0.6-6,1.2-9.1c0.4-2.2,0.1-4.6,0.1-6.8"/>
		<g>
			<path d="M671,292.4c1.6,2.3,0.5,8.9,0.5,11.6c0,4.3,0,8.6,0,12.9c0,9.1,0,18.3,0,27.4c0,18.1-0.2,36.2,0.6,54.2
				c0.8,17.4,2.6,34.6,4.3,52c0.9,9.1,2,18.3,2,27.5c0,7.4-1,15.1,1.1,22.4c2,7,6.6,13.2,9.8,19.7c2.1,4.3,5.3,9.2,10.3,10.3
				c4.4,0.9,12.9,2,16.7-1.4c1.7-1.5,2-4.2,3-6.1c1.7-3.4,3.5-5.9,4.1-9.7c1.3-8.2,0.3-16.9,0.7-25.2c0.4-9.2,0.4-18.2-0.1-27.4
				c-1-17.8-1.6-35.6-2.7-53.4c-1.2-20-1.6-40-1.5-60c0-10-0.6-19.9-0.7-29.9c0-4.6-0.2-9.3,0-14c0.2-5.1,1.4-9.8,1.3-14.9
				c0-1.9-3-1.9-3,0c0.2,7.8-1.3,15.5-1.3,23.3c0,8.1-0.4,16.2,0.2,24.2c1.3,16.7,0.5,33.6,0.9,50.3c0.5,16.4,1.2,32.8,2,49.1
				c0.9,17.2,2.6,34.3,1.8,51.6c-0.4,8.5,0.8,17.7-0.8,26.1c-0.7,3.8-3.1,6.7-4.6,10.1c-0.7,1.5-0.8,2.5-2,3.6
				c-1.5,1.3-4,1.5-5.9,1.4c-4-0.1-9-0.3-11.9-3.2c-2.4-2.4-3.7-5.4-5.1-8.4c-3.6-7.6-8.8-14.2-9.6-22.9c-0.7-7.5,0.3-15.2-0.1-22.7
				c-0.5-8.4-1.3-16.7-2.3-25.1c-1.9-16.4-3.2-32.7-3.9-49.2c-0.8-18.7-0.5-37.5-0.5-56.2c0-9.8,0-19.6,0-29.4c0-4.1,0-8.2,0-12.3
				c0-2.7,0.8-5.6-0.9-7.9C672.5,289.3,669.9,290.8,671,292.4L671,292.4z"/>
		</g>
	</g>
</g>
<g id="Head">
	<g>
		<path fill="#FFFFFF" d="M742.4,170.8c0-5.4,0.2-9.4,2.3-14.5c2.1-5,5.6-11.1,5.4-16.6c-4.6-4.5-15.1,8.8-18.8,11.2
			c-3.1,2-7,2.7-10.5,3c-2.6,0.2-4.9,1.2-7.2,2.2c-1-0.6-2-1.1-2.9-1.5c-6-2.5-12.7-8.3-19.2-8.6c-6.1-0.3-11.5,0.1-17.3,2
			c-3.9,1.3-7.2,3.2-10.1,5.6l1.2-1.4c-3,0-6.2,0.6-9.1-0.1c-2.7-0.6-5.2-2.1-7.8-3c-3.4-1.2-13.1-2.7-14.1-7.2
			c0.5,3.2,0.5,5.7,1.3,8.8c0.7,2.6,0.3,5.4,0.3,8.1c0,3.7,0,7.4,0,11.2c0.1,5.6,3.2,4.7,3.3,10.3c0,0-0.6,3.4-3.4,9.3
			c-3.8,8.2-3,15.9-3,24.7c0,10.8-0.4,21.3,2.7,31.9c1.8,6.2,5.2,10.5,8.2,16.1c3.6,6.7,6.4,10.2,13.8,12.9
			c6.1,2.2,12.1,3.5,18.4,5.2c17.7,4.8,38.3,1.5,51.5-11.3c9.9-6.5,16.5-18.5,16.5-30.3c-0.1-9.2,1.7-20.1-0.3-29
			c-1.1-4.8-3.1-9-4.3-13.8c-0.5-1.9-1.2-3.7-2-5.4C737.4,190.5,742.4,179.5,742.4,170.8z"/>
		<g>
			<path d="M743.9,170.8c0-4.3,0.2-8.4,1.6-12.5c1.1-3.1,2.7-6,3.9-9c1.1-2.8,4.3-9.6,0.6-11.6c-6-3.3-13.9,7-17.6,10.2
				c-4.6,4.1-11.4,4.4-17.1,5.7c-5,1.2-11.5-4.9-16-7c-11.3-5.3-26.3-1.7-35.9,5.6c0.6,0.8,1.2,1.6,1.8,2.4c0.4-0.5,0.8-0.9,1.2-1.4
				c0.8-0.9,0.3-2.6-1.1-2.6c-3.5,0.1-6.9,0.5-10.3-0.5c-2.5-0.7-4.8-2.1-7.3-2.9c-3.6-1.1-10.6-1.8-12-5.9
				c-0.6-1.9-3.1-1.1-2.9,0.8c0.9,6.8,1.6,13.3,1.6,20.2c0,5.2-0.3,9.1,2.1,13.7c2.3,4.5,0,8.2-1.9,12.6c-2.3,5.2-3.2,10.5-3.3,16.1
				c-0.3,13-1,27,2.3,39.7c1.3,5.1,3.7,9.5,6.3,14c2.6,4.4,4.8,9.4,8.6,13c2.9,2.7,6.6,4.3,10.4,5.5c6.7,2.3,13.9,4.2,20.9,5.6
				c10,1.9,20.6,1.5,30.4-1.8c9.4-3.1,18.4-9.4,25.1-16.7c7-7.7,9.9-17,10.1-27.2c0.1-6.9,1-13.9,0.5-20.8
				c-0.5-7.3-3.2-13.9-5.2-20.8c-0.3-1-2-4.6-2-4.6c0-1,1.2-2.9,1.5-3.8C742.3,181.8,743.8,176.4,743.9,170.8c0.1-1.9-2.9-1.9-3,0
				c-0.1,5-1.4,9.8-3.1,14.4c-0.6,1.7-2,3.8-1.9,5.6c0.1,2,1.9,5.2,2.4,7.2c0.7,2.3,1.5,4.6,2.3,6.8c2.1,6.3,2.6,12.5,2.4,19.2
				c-0.4,11.1,0.3,22.5-5.6,32.3c-2.9,4.9-6.7,8-11,11.6c-4.5,3.7-8.8,6.9-14.2,9.1c-9.7,3.9-20.6,4.7-30.8,2.9
				c-5.4-1-10.8-2.5-16.2-4c-5.4-1.5-11.3-3-15.4-7.2c-3.5-3.6-5.7-8.7-8.2-13c-3.2-5.5-5.4-11.1-6.4-17.4c-1-6.1-1-12.2-1-18.3
				c0-6.1-0.3-12.2,0.1-18.3c0.5-6.6,3.4-11.9,5.5-18.1c0.9-2.7,1.2-4.8,0-7.6c-1-2.3-2.2-3.3-2.4-6.1c-0.2-3.4,0-6.9,0-10.2
				c0-6.3-0.9-12-1.7-18.2c-1,0.3-1.9,0.5-2.9,0.8c1.6,4.7,7.1,6,11.4,7.2c3.2,0.9,6.1,2.2,9.2,3.3c3.9,1.5,7.8,1,11.9,0.9
				c-0.4-0.9-0.7-1.7-1.1-2.6c-0.4,0.5-0.8,0.9-1.2,1.4c-1.1,1.2,0.4,3.4,1.8,2.4c5.8-4.4,12.3-6.8,19.6-7.4
				c6.6-0.5,11.7,0.7,17.5,4c3.2,1.9,8.3,5.9,12.1,6c1.1,0,2.4-1,3.5-1.4c1.6-0.5,3.2-0.7,4.9-0.9c2.3-0.3,4.6-0.7,6.8-1.6
				c6.6-2.6,10.1-10.8,16.9-12.9c4.3-1.3,2.1,3.8,1.2,6.3c-1,2.9-2.5,5.7-3.7,8.5c-2.1,5-2.5,9.9-2.5,15.3
				C740.9,172.7,743.9,172.7,743.9,170.8z"/>
		</g>
	</g>
	<g>
		<path fill="#FFFFFF" d="M748.7,164.2c0-6.3,0.2-10.9,2.7-16.8c2.4-5.8,6.4-12.8,6.2-19.2c-5.3-5.2-17.5,10.2-21.7,12.9
			c-3.6,2.3-8.1,3.1-12.2,3.5c-3.1,0.3-5.6,1.4-8.3,2.6c-1.1-0.7-2.3-1.2-3.3-1.7c-7-2.9-14.7-9.6-22.2-9.9
			c-7.1-0.3-13.3,0.1-20,2.4c-4.5,1.5-8.3,3.8-11.7,6.5l1.4-1.6c-3.4,0-7.2,0.7-10.5-0.1c-3.1-0.7-6-2.4-9-3.5
			c-4-1.4-15.1-3.1-16.3-8.4c0.6,3.7,0.6,6.6,1.6,10.2c0.8,3,0.4,6.2,0.4,9.3c0,4.3,0,8.6,0,12.9c0.1,6.5,3.7,5.5,3.9,11.9
			c0,0-0.7,3.9-3.9,10.8c-4.4,9.5-3.5,18.4-3.5,28.6c0,12.6-0.4,24.7,3.1,36.9c2.1,7.2,6,12.2,9.5,18.6c4.2,7.8,7.4,11.9,16,14.9
			c7.1,2.5,14,4.1,21.3,6c20.5,5.5,44.4,1.7,59.7-13.1c11.5-7.5,19.1-21.4,19.1-35.1c-0.1-10.6,2-23.3-0.4-33.6
			c-1.3-5.5-3.6-10.5-5-16c-0.5-2.2-1.4-4.3-2.3-6.3C742.9,187,748.7,174.3,748.7,164.2z"/>
		<g>
			<path d="M753.2,164.2c0-5.2,0.3-10.1,2.3-15c1.7-4.4,4-8.5,5.4-13.1c1.1-3.6,2.5-8.8-0.6-11.7c-2.2-2-5.3-2.3-8.1-1.5
				c-6.1,1.7-11,7.1-15.4,11.3c-6.6,6.3-15.6,5.4-23.7,8.9c1.5,0,3,0,4.5,0c-9.1-5-18.9-12-29.6-12.3c-11.6-0.4-23,2.4-32.3,9.5
				c1.8,2.4,3.6,4.7,5.5,7.1c0.5-0.5,1-1.1,1.4-1.6c2.5-2.8,0.9-7.8-3.2-7.7c-4,0.1-7.8,0.7-11.6-0.6c-2.8-1-5.4-2.4-8.2-3.2
				c-2.6-0.8-10.7-1.7-11.7-4.8c-1.9-5.7-9.5-3.2-8.7,2.4c1,7.4,1.8,14.5,1.8,22c0,5.6-0.9,11.7,2.1,16.8c1.8,3,2.1,3.5,0.9,7
				c-2.1,6.3-5.1,11.8-6,18.5c-0.8,6.1-0.5,12.2-0.5,18.3c0,7.4-0.2,14.8,0.5,22.2c0.6,6.4,1.6,13,3.9,19c2.2,5.9,5.8,11.1,8.8,16.5
				c2.4,4.3,4.9,8.5,8.8,11.6c4.4,3.6,9.8,5.4,15.2,7.1c11.8,3.6,24,7,36.4,6.9c11.1-0.1,22.4-2.8,32.1-8.2
				c9.3-5.2,18.9-13.2,24.6-22.1c7.6-11.9,7.2-24.6,7.8-38.2c0.8-15.6-2.4-30.3-8.8-44.7c0,1.5,0,3,0,4.5
				C750.3,181.4,753,172.9,753.2,164.2c0.2-5.8-8.8-5.8-9,0c-0.1,5.4-1.6,10.7-3.4,15.8c-1.1,3.2-3,5.9-1.8,9.2
				c2.2,6.4,4.6,12.8,6.3,19.4c1.8,6.8,1.6,13.8,1.2,20.8c-0.6,12.4,0,24.2-7.4,34.9c-3.3,4.7-7.7,7.8-11.9,11.5
				c-4.6,4-9.8,7.2-15.6,9.4c-10.9,4.1-23,4.8-34.3,2.6c-6.2-1.3-12.5-3-18.6-4.8c-5.5-1.6-11.5-3.2-15.5-7.6
				c-3.4-3.8-5.6-8.8-8.1-13.1c-3.7-6.2-6.2-12.1-7.5-19.2c-1.2-6.9-1.3-13.9-1.3-20.9c0-7-0.4-14.2,0.1-21.2
				c0.5-7.6,3.8-13.6,6.1-20.6c1.3-3.7,1.7-7.2,0-11c-0.7-1.6-2-2.8-2.5-4.5c-1.1-3.6-0.2-8.8-0.2-12.6c0-7.7-1.1-14.9-2.1-22.5
				c-2.9,0.8-5.8,1.6-8.7,2.4c2.1,6.5,9.1,8.7,15.1,10.3c3.3,0.9,6.4,2.1,9.6,3.4c5.2,2.1,10.1,1.6,15.5,1.5
				c-1.1-2.6-2.1-5.1-3.2-7.7c-0.5,0.5-1,1.1-1.4,1.6c-3.2,3.6,1.2,10.3,5.5,7.1c8.4-6.5,20.4-10.2,31.1-8c4.9,1,9.3,4.3,13.7,6.7
				c3.7,2,8.4,5.5,12.6,4c8.3-2.8,17-2.6,23.9-8.7c2.4-2.2,4.7-4.6,7.2-6.7c1.3-1.1,2.6-2.3,4.2-3.1c1.2-0.7,2.5-0.4,1.6-1.1
				c-0.4-1.1-0.9-2.1-1.3-3.2c-0.1,6.5-3.7,12.2-6,18.1c-2.3,5.8-2.8,11.8-2.8,18C744.2,170,753.2,170,753.2,164.2z"/>
		</g>
	</g>
	<g>
		<path fill="#FFFFFF" d="M682.6,219.6c1.3-6.3-4.5-8.7-5.4-14.3c-1-6.4,7.1-8.3,12.3-7.2c4.2,0.9,8.5,5.9,7.7,10.6
			c-1,5.7-9.2,6.6-12.8,11"/>
		<g>
			<path d="M684.1,220c0.5-3.9-0.7-6.6-2.9-9.8c-1.4-2.2-3.5-5.1-2.1-7.8c1.2-2.4,4.8-3.1,7.2-3.1c6.3-0.2,13.3,7.5,7,12.5
				c-3.2,2.5-7.2,3.6-9.9,6.7c-1.3,1.4,0.8,3.6,2.1,2.1c3.7-4.1,11.1-5,12.9-10.8c1.9-5.9-3.3-12.3-9-13.4c-4.5-0.9-11,0.2-13.1,4.8
				c-3.2,6.8,5.8,11.4,4.9,17.9C680.9,221.1,683.8,221.9,684.1,220L684.1,220z"/>
		</g>
	</g>
	<g>
		<path fill="#FFFFFF" d="M684.4,223.1c-3.3,3.3-1.8,10-1.8,14.3c0,6.4,0.6,11.6,1.6,17.9c0.6,4.2,0.3,9.8,4,12.6
			c4.2,3.2,9.3,2,12.3-1.9"/>
		<g>
			<path d="M683.4,222.1c-3.3,4.2-2.4,9.2-2.2,14.2c0.3,7.4,1.1,14.6,1.9,22c0.5,4.6,1.2,9.4,5.7,11.8c4.6,2.5,9.5,0.7,12.8-3
				c1.3-1.4-0.8-3.6-2.1-2.1c-4.9,5.6-11.8,3.1-13-3.8c-0.7-3.9-1.1-8.1-1.5-12.1c-0.5-4.2-0.6-8.4-0.7-12.7
				c-0.2-3.9-1.3-8.8,1.4-12.1C686.7,222.7,684.6,220.6,683.4,222.1L683.4,222.1z"/>
		</g>
	</g>
	<g>
		<path fill="#FFFFFF" d="M684.4,255.3c0,3.5,1.5,10.9,0.2,14.1c-1.4,3.5-4,3.9-7.5,4.8c-3.9,1-6.9,1.9-10.2-1.2
			c-3.2-2.9-2.6-7.8-5.7-10.5"/>
		<g>
			<path d="M682.9,255.3c0.1,3,0.6,6,0.7,9c0.2,4.4-1.2,6.8-5.7,8.1c-5,1.5-9.9,1.7-12.1-4c-1-2.6-1.6-4.9-3.6-7
				c-1.3-1.4-3.4,0.7-2.1,2.1c3.3,3.5,2.7,8.9,7.2,11.7c3.8,2.4,8.6,1,12.6-0.3c9.2-2.9,6.2-12.3,6-19.6
				C685.9,253.4,682.9,253.4,682.9,255.3L682.9,255.3z"/>
		</g>
	</g>
	<g>
		<path fill="#FFFFFF" d="M718.4,260.6c7.9,0,16.1-1,23.7,1.7c4.3,1.5,8,3.8,12.1,5.6c5.5,2.4,9.3,1.2,14.2,5.2"/>
		<g>
			<path d="M718.4,262.1c10-0.1,19.1-0.7,28.3,3.8c3.3,1.6,6.4,3.4,9.9,4.5c4,1.2,7.6,1.5,11,4c1.6,1.1,3.1-1.5,1.5-2.6
				c-3.1-2.3-6.1-3-9.8-3.9c-5.1-1.2-9.4-4-14.2-6c-8.6-3.7-17.6-2.9-26.8-2.8C716.4,259.2,716.4,262.2,718.4,262.1L718.4,262.1z"/>
		</g>
	</g>
	<g>
		<path fill="#FFFFFF" d="M720.1,248.1c6.6,0.6,12.6,1.9,19.3,1.8c4.8-0.1,8.7,0.3,13.3,1.4c6.6,1.5,15.8,2.7,20.9,7.6"/>
		<g>
			<path d="M720.1,249.6c4.7,0.5,9.3,1.2,14,1.6c5,0.4,10,0,14.9,0.8c7.8,1.3,17.5,2.6,23.6,7.9c1.5,1.3,3.6-0.9,2.1-2.1
				c-6.4-5.5-15.3-6.8-23.3-8.3c-4.6-0.9-9.1-0.9-13.8-1.1c-5.9-0.2-11.7-1.2-17.5-1.8C718.2,246.5,718.2,249.5,720.1,249.6
				L720.1,249.6z"/>
		</g>
	</g>
	<g>
		<path fill="#FFFFFF" d="M723.7,239.2c9.2,0,18.4,0,27.5,0c9.2,0,14.6,2.6,22.5,7.1"/>
		<g>
			<path d="M723.7,240.7c9.2,0,18.4-0.2,27.5,0c8.2,0.1,14.7,2.9,21.7,6.9c1.7,1,3.2-1.6,1.5-2.6c-6.3-3.6-12.6-6.7-19.9-7.2
				c-10.2-0.8-20.6-0.1-30.8-0.1C721.8,237.7,721.8,240.7,723.7,240.7L723.7,240.7z"/>
		</g>
	</g>
	<g>
		<path fill="#FFFFFF" d="M643.4,187.4c4.7,2.6,7.7,7,12.3,9.5c3.8,2.1,7.5,3.5,10.9,6.6"/>
		<g>
			<path d="M642.6,188.7c3.7,2.2,6.5,5.4,9.9,8c4.1,3,9,4.5,13,7.9c1.5,1.2,3.6-0.9,2.1-2.1c-3.8-3.2-8.3-4.8-12.4-7.5
				c-4-2.6-7-6.3-11.1-8.8C642.4,185.1,640.9,187.7,642.6,188.7L642.6,188.7z"/>
		</g>
	</g>
	<g>
		<path fill="#FFFFFF" d="M648.7,208.9c0-6.2-1.6-13.2,3.6-17.9"/>
		<g>
			<path d="M650.2,208.9c-0.1-5.8-1.4-12.3,3.1-16.8c1.4-1.4-0.8-3.5-2.1-2.1c-5.2,5.2-4.1,12.2-4,18.9
				C647.2,210.8,650.2,210.8,650.2,208.9L650.2,208.9z"/>
		</g>
	</g>
	<g>
		<path fill="#FFFFFF" d="M698.7,182.1c3.9,3,8.2,6.1,12.5,8.5c3.4,1.9,6.3,2.5,8.9,5.8"/>
		<g>
			<path d="M697.7,183.1c3.5,2.7,7.1,5.3,10.9,7.6c3.6,2.2,7.7,3.4,10.6,6.7c1.3,1.4,3.4-0.7,2.1-2.1c-2.5-2.8-5.5-4-8.7-5.7
				c-4.5-2.4-8.7-5.5-12.7-8.6C698.3,179.8,696.1,181.9,697.7,183.1L697.7,183.1z"/>
		</g>
	</g>
	<g>
		<path fill="#FFFFFF" d="M707.6,198.1c-0.1-4.8,1.1-8.1,1.8-12.5"/>
		<g>
			<path d="M709.1,198.1c0-4.1,1.1-8,1.7-12.1c0.3-1.9-2.6-2.7-2.9-0.8c-0.7,4.3-1.8,8.5-1.8,12.9
				C706.1,200.1,709.1,200.1,709.1,198.1L709.1,198.1z"/>
		</g>
	</g>
	<g>
		<path fill="#FFFFFF" d="M632.6,164.2c0.1-4.7-0.6-5.2,2.2-8.4c1.6-1.8,4.7-6,7.6-4c-0.7-5-8.9-3.1-9.9,0.6
			c0.1-1.1,0.1-2.2,0.1-3.4c0,2.1,0,4.2,0,6.2"/>
		<g>
			<path d="M634.1,164.2c0-2.2-0.4-4.4,0.9-6.3c1.1-1.6,4.3-6,6.6-4.8c1.2,0.6,2.5-0.4,2.2-1.7c-1.4-6.4-11-4.7-12.7,0.6
				c1,0.1,2,0.3,2.9,0.4c0.1-1.1,0.1-2.2,0.1-3.4c-1,0-2,0-3,0c0,2.1,0,4.2,0,6.2c0,1.9,3,1.9,3,0c0-2.1,0-4.2,0-6.2
				c0-1.9-2.9-1.9-3,0c0,1.1-0.1,2.2-0.1,3.4c-0.1,1.8,2.4,1.9,2.9,0.4c0.9-2.6,6.3-3.8,7-0.6c0.7-0.6,1.5-1.1,2.2-1.7
				c-3.8-2.1-6.9,1.2-9.2,4c-2.8,3.2-2.7,5.6-2.8,9.7C631.1,166.1,634.1,166.1,634.1,164.2L634.1,164.2z"/>
		</g>
	</g>
	<g>
		<path fill="#FFFFFF" d="M729.1,157.1c1.8,0,3.2,1.4,4,3c3.9-3,10.6-5.9,6.1-12.4c-3.6,2.1-7.8,4.8-8.3,9.3c-0.3,2.9,2.1,7,5.4,3.7
			"/>
		<g>
			<path d="M729.1,158.6c1.4,0.1,2.1,1.1,2.7,2.2c0.4,0.7,1.4,1,2.1,0.5c2.4-1.8,5.3-3.3,7.1-5.9c1.9-2.8,1.3-5.8-0.5-8.6
				c-0.4-0.7-1.3-1-2.1-0.5c-4.2,2.5-9.2,5.9-9,11.4c0.2,4.7,4.3,7.1,7.9,3.9c1.5-1.3-0.7-3.4-2.1-2.1c-1.5,1.3-2.5,0.2-2.8-1.4
				c-0.3-1.5,0.3-3.1,1.2-4.3c1.6-2.2,4-3.6,6.3-5c-0.7-0.2-1.4-0.4-2.1-0.5c1.6,2.4,1.7,4.4-0.4,6.5c-1.5,1.5-3.4,2.6-5.1,3.8
				c0.7,0.2,1.4,0.4,2.1,0.5c-1.2-2.1-2.8-3.4-5.3-3.7C727.2,155.4,727.2,158.4,729.1,158.6L729.1,158.6z"/>
		</g>
	</g>
	<g>
		<path fill="#FFFFFF" d="M642.8,267.2c-4.2-0.9-9.2,0.3-13.2,1.4c-4.3,1.2-8,3.4-12,5.4c-4.8,2.4-9.1,5.8-13.9,8.1"/>
		<g>
			<path d="M643.2,265.7c-15.1-2.3-27.7,8.6-40.2,15.1c-1.7,0.9-0.2,3.5,1.5,2.6c11.6-6,23.8-16.9,37.9-14.8
				C644.3,268.9,645.1,266,643.2,265.7L643.2,265.7z"/>
		</g>
	</g>
	<g>
		<path fill="#FFFFFF" d="M631.5,257.5c-1.1-0.2-2.2,0.2-3.2,0.6c-2.2,0.9-4.2,1.9-6.5,2.6c-3,1-6.1,1.9-9,3.2
			c-2.9,1.3-5.7,3-8.5,4.5c-3,1.6-6.1,2.8-9.2,4.1c-1.6,0.7-3,1.1-4.7,1"/>
		<g>
			<path d="M631.5,256c-3.4,0.1-6.1,1.8-9.2,2.9c-3.4,1.2-6.9,2.2-10.2,3.7c-6.9,3.1-14.1,9-21.8,9.4c-1.9,0.1-1.9,3.1,0,3
				c6.1-0.4,12.3-4,17.6-6.9c3.5-1.9,7-3.5,10.7-4.8c3.8-1.3,8.9-4.1,12.9-4.3C633.5,259,633.5,256,631.5,256L631.5,256z"/>
		</g>
	</g>
	<g>
		<path fill="#FFFFFF" d="M629.9,249.5c-2.6-1.2-5.3-0.1-8,0.5c-5,1.2-9.9,3.4-14.9,4.4c-2.2,0.4-4.3,0.5-6.5,0.9
			c-1.5,0.3-3.7,0.4-4.8,1.7"/>
		<g>
			<path d="M630.3,248.1c-5.9-1.7-12.4,1.5-17.9,3.3c-3.5,1.1-6.8,1.7-10.5,2.2c-2.5,0.4-4.9,0.6-7,2.1c-1.5,1.2,0,3.8,1.5,2.6
				c3.7-2.8,10.6-2.2,15.1-3.5c5.3-1.6,12.4-5.4,18-3.8C631.4,251.5,632.2,248.6,630.3,248.1L630.3,248.1z"/>
		</g>
	</g>
	<g>
		<path fill="#FFFFFF" d="M651.3,191.7c2.1-1,3.7-2.2,5.3-3.7c1.5-1.4,3.5-2.2,4.8-3.7"/>
		<g>
			<path d="M652.1,193c2-1,3.8-2.2,5.4-3.7c1.6-1.5,3.6-2.4,5.1-4c1.3-1.4-0.8-3.5-2.1-2.1c-1.3,1.4-3.1,2.3-4.6,3.5
				c-1.7,1.5-3.3,2.7-5.3,3.7C648.8,191.3,650.4,193.9,652.1,193L652.1,193z"/>
		</g>
	</g>
</g>
</svg>
